<?xml version="1.0" encoding="utf-8"?>
<!-- Generator: Adobe Illustrator 23.0.1, SVG Export Plug-In . SVG Version: 6.00 Build 0)  -->
<svg version="1.1" baseProfile="basic" id="Layer_1"
	 xmlns="http://www.w3.org/2000/svg" xmlns:xlink="http://www.w3.org/1999/xlink" x="0px" y="0px" viewBox="0 0 907.2 690.2"
	 xml:space="preserve">
<g>
	<path fill="#262154" stroke="#6D5BD0" stroke-width="8" d="M58.2,269.5h796c8.8,0,16,4.6,16,10.2v353.2c0,5.6-7.2,10.2-16,10.2
		h-796c-8.8,0-16-4.6-16-10.2V279.6C42.2,274,49.4,269.5,58.2,269.5z"/>
	<path fill="#6D5BD0" d="M154.2,260.5c0.7-1.2,2.1-1.9,3.6-1.9H754c1.4,0,2.7,0.6,3.4,1.6l4.2,5.8c1.6,2.2-0.3,5.1-3.4,5.1H154.5
		c-2.9,0-4.9-2.5-3.6-4.7L154.2,260.5z"/>
	<path fill="#6D5BD0" d="M596.5,254.9c0.2-1.7,1.9-3,4-3h55.3c2,0,3.7,1.2,4,2.9l0.9,5.8c0.3,2-1.5,3.8-4,3.8h-57
		c-2.4,0-4.2-1.7-4-3.7L596.5,254.9z"/>
	<ellipse fill="#6D5BD0" cx="225.7" cy="260.7" rx="12.5" ry="10.4"/>
	<ellipse fill="#6D5BD0" cx="267.7" cy="260.7" rx="12.5" ry="10.4"/>
	<path fill="#897DD0" d="M221.2,256.1h9c1.7,0,3,1.1,3,2.5v2.5c0,1.4-1.3,2.5-3,2.5h-9c-1.7,0-3-1.1-3-2.5v-2.5
		C218.2,257.2,219.6,256.1,221.2,256.1z"/>
	<path fill="#897DD0" d="M263.2,256.1h9c1.7,0,3,1.1,3,2.5v2.5c0,1.4-1.3,2.5-3,2.5h-9c-1.7,0-3-1.1-3-2.5v-2.5
		C260.2,257.2,261.6,256.1,263.2,256.1z"/>
	<path fill="#897DD0" d="M608.2,256.1h40c2.2,0,4,1.5,4,3.3v0.8c0,1.8-1.8,3.3-4,3.3h-40c-2.2,0-4-1.5-4-3.3v-0.8
		C604.2,257.6,606,256.1,608.2,256.1z"/>
	<path fill="none" stroke="#897DD0" d="M398.2,258.6v7.1v7.1"/>
	<path fill="#897DD0" d="M435.7,262.8h3c1.9,0,3.5,1.3,3.5,2.9l0,0c0,1.6-1.6,2.9-3.5,2.9h-3c-1.9,0-3.5-1.3-3.5-2.9l0,0
		C432.2,264.1,433.8,262.8,435.7,262.8z"/>
	<path fill="#897DD0" d="M453.7,262.8h3c1.9,0,3.5,1.3,3.5,2.9l0,0c0,1.6-1.6,2.9-3.5,2.9h-3c-1.9,0-3.5-1.3-3.5-2.9l0,0
		C450.2,264.1,451.8,262.8,453.7,262.8z"/>
	<path fill="#897DD0" d="M471.7,262.8h3c1.9,0,3.5,1.3,3.5,2.9l0,0c0,1.6-1.6,2.9-3.5,2.9h-3c-1.9,0-3.5-1.3-3.5-2.9l0,0
		C468.2,264.1,469.8,262.8,471.7,262.8z"/>
	<path fill="none" stroke="#897DD0" d="M512.2,258.6v7.1v7.1"/>
	<path fill="#6D5BD0" d="M94.2,640.5h725l-16.9,11.2c-1.5,1-3.6,1.6-5.8,1.6H116c-2.2,0-4.4-0.6-5.9-1.7L94.2,640.5z"/>
	<path fill="none" stroke="#897DD0" d="M219.2,640.5v6.4v6.4"/>
	<path fill="none" stroke="#897DD0" d="M672.2,640.5v6.4v6.4"/>
	<path fill="#6D5BD0" d="M243.2,645.6h405l-13.5,11.9c-1.5,1.3-3.9,2.1-6.5,2.1H263.2c-2.6,0-5-0.8-6.5-2.1L243.2,645.6z"/>
	<ellipse fill="#897DD0" cx="311.7" cy="651.3" rx="2.5" ry="1.6"/>
	<path fill="#312C60" d="M325.7,650.3c-1.3-0.8-0.4-2.2,1.4-2.2h245.3c1.8,0,2.7,1.4,1.4,2.2l-5.1,3.3c-0.9,0.6-2.2,0.9-3.5,0.9
		H334.3c-1.3,0-2.6-0.3-3.5-0.9L325.7,650.3z"/>
	<path fill="#897DD0" d="M333.2,648.2h4v3.8c0,0.7-0.9,1.3-2,1.3l0,0c-1.1,0-2-0.6-2-1.3V648.2z"/>
	<path fill="#897DD0" d="M343.2,648.2h4v3.8c0,0.7-0.9,1.3-2,1.3l0,0c-1.1,0-2-0.6-2-1.3V648.2z"/>
	<path fill="#897DD0" d="M353.2,648.2h4v3.8c0,0.7-0.9,1.3-2,1.3l0,0c-1.1,0-2-0.6-2-1.3V648.2z"/>
	<path fill="#897DD0" d="M363.2,648.2h4v3.8c0,0.7-0.9,1.3-2,1.3l0,0c-1.1,0-2-0.6-2-1.3V648.2z"/>
	<path fill="#897DD0" d="M373.2,648.2h4v3.8c0,0.7-0.9,1.3-2,1.3l0,0c-1.1,0-2-0.6-2-1.3V648.2z"/>
	<path fill="#897DD0" d="M383.2,648.2h4v3.8c0,0.7-0.9,1.3-2,1.3l0,0c-1.1,0-2-0.6-2-1.3V648.2z"/>
	<path fill="#897DD0" d="M393.2,648.2h4v3.8c0,0.7-0.9,1.3-2,1.3l0,0c-1.1,0-2-0.6-2-1.3V648.2z"/>
	<path fill="#897DD0" d="M403.2,648.2h4v3.8c0,0.7-0.9,1.3-2,1.3l0,0c-1.1,0-2-0.6-2-1.3V648.2z"/>
	<path fill="#897DD0" d="M413.2,648.2h4v3.8c0,0.7-0.9,1.3-2,1.3l0,0c-1.1,0-2-0.6-2-1.3V648.2z"/>
	<path fill="#897DD0" d="M423.2,648.2h4v3.8c0,0.7-0.9,1.3-2,1.3l0,0c-1.1,0-2-0.6-2-1.3V648.2z"/>
	<path fill="#897DD0" d="M433.2,648.2h4v3.8c0,0.7-0.9,1.3-2,1.3l0,0c-1.1,0-2-0.6-2-1.3V648.2z"/>
	<path fill="#897DD0" d="M443.2,648.2h4v3.8c0,0.7-0.9,1.3-2,1.3l0,0c-1.1,0-2-0.6-2-1.3V648.2z"/>
	<path fill="#897DD0" d="M453.2,648.2h4v3.8c0,0.7-0.9,1.3-2,1.3l0,0c-1.1,0-2-0.6-2-1.3V648.2z"/>
	<path fill="#897DD0" d="M463.2,648.2h4v3.8c0,0.7-0.9,1.3-2,1.3l0,0c-1.1,0-2-0.6-2-1.3V648.2z"/>
	<path fill="#897DD0" d="M473.2,648.2h4v3.8c0,0.7-0.9,1.3-2,1.3l0,0c-1.1,0-2-0.6-2-1.3V648.2z"/>
	<path fill="#897DD0" d="M483.2,648.2h4v3.8c0,0.7-0.9,1.3-2,1.3l0,0c-1.1,0-2-0.6-2-1.3V648.2z"/>
	<path fill="#897DD0" d="M493.2,648.2h4v3.8c0,0.7-0.9,1.3-2,1.3l0,0c-1.1,0-2-0.6-2-1.3V648.2z"/>
	<path fill="#897DD0" d="M503.2,648.2h4v3.8c0,0.7-0.9,1.3-2,1.3l0,0c-1.1,0-2-0.6-2-1.3V648.2z"/>
	<path fill="#897DD0" d="M513.2,648.2h4v3.8c0,0.7-0.9,1.3-2,1.3l0,0c-1.1,0-2-0.6-2-1.3V648.2z"/>
	<path fill="#897DD0" d="M523.2,648.2h4v3.8c0,0.7-0.9,1.3-2,1.3l0,0c-1.1,0-2-0.6-2-1.3V648.2z"/>
	<path fill="#897DD0" d="M533.2,648.2h4v3.8c0,0.7-0.9,1.3-2,1.3l0,0c-1.1,0-2-0.6-2-1.3V648.2z"/>
	<path fill="#897DD0" d="M543.2,648.2h4v3.8c0,0.7-0.9,1.3-2,1.3l0,0c-1.1,0-2-0.6-2-1.3V648.2z"/>
	<path fill="#897DD0" d="M553.2,648.2h4v3.8c0,0.7-0.9,1.3-2,1.3l0,0c-1.1,0-2-0.6-2-1.3V648.2z"/>
	<path fill="#897DD0" d="M563.2,648.2h4v3.8c0,0.7-0.9,1.3-2,1.3l0,0c-1.1,0-2-0.6-2-1.3V648.2z"/>
	<ellipse fill="#897DD0" cx="587.7" cy="651.3" rx="2.5" ry="1.6"/>
</g>
<g>
	<defs>
		<filter id="Adobe_OpacityMaskFilter" filterUnits="userSpaceOnUse" x="367.2" y="45.4" width="165.4" height="328.6">
			<feColorMatrix  type="matrix" values="1 0 0 0 0  0 1 0 0 0  0 0 1 0 0  0 0 0 1 0"/>
		</filter>
	</defs>
	<mask maskUnits="userSpaceOnUse" x="367.2" y="45.4" width="165.4" height="328.6" id="mask0_247_57377_2_">
		<rect x="281.2" y="33.9" fill="#C4C4C4" filter="url(#Adobe_OpacityMaskFilter)" width="344.4" height="224.2"/>
	</mask>
	<g mask="url(#mask0_247_57377_2_)">
		<path fill="none" stroke="#52AE37" stroke-width="2" d="M459.9,96l25.5,14.7c2.9,1.7,4.6,4.7,4.6,8v29.4c0,3.3-1.8,6.4-4.6,8
			l-25.5,14.7c-2.9,1.7-6.4,1.7-9.2,0l-25.5-14.7c-2.9-1.7-4.6-4.7-4.6-8v-29.4c0-3.3,1.8-6.4,4.6-8L450.6,96
			C453.5,94.4,457,94.4,459.9,96z"/>
		<path opacity="0.7" fill="none" stroke="#24E029" stroke-width="0.74" stroke-miterlimit="10" d="M484.1,208.3c0,0-6,9.9-1.9,18.7
			"/>
		<path fill="#2E2454" d="M424.3,237.9C424.3,237.9,424.3,237.9,424.3,237.9C424.3,237.9,424.3,237.9,424.3,237.9L424.3,237.9z"/>
		<path fill="#2E2454" d="M433.3,236.6c1.2-0.1,2.5-0.3,3.7-0.4l-0.1-0.1l-1.9,0.2L433.3,236.6z"/>
		<path fill="#271F4A" d="M421.1,253.9c0,0,0.7-1,3-0.8l-0.3,3C423.8,256.2,421.3,254.9,421.1,253.9z"/>
		<path fill="#271F4A" d="M487.5,254c0,0-0.6-1.6-3.8-1.3l0.5,3.5C484.2,256.2,487.1,255.1,487.5,254z"/>
		<path fill="#8C49BF" d="M445.2,195.5c0,0-12.9,0.5-21.7,9.5c-0.6,0.6-1.2,1.2-1.7,1.9c0,0-31.2,37.4-34.6,50.3l4.4,3.2l3.8,2.9
			c11.5-6.8,39.3-46.6,39.3-46.6l0.1-0.1l2.4,1.8l11.1-17L445.2,195.5z"/>
		<path fill="#572188" d="M409.7,232.5l9.7-12.6c1.1-1.4,1.6-3.1,1.6-4.9c0-1.8-0.7-3.5-1.8-4.8c-4.1,5-12,14.9-19,24.8
			c1.6,0.7,3.5,0.9,5.2,0.5C407.1,235,408.6,234,409.7,232.5L409.7,232.5z"/>
		<path fill="#572188" d="M421.9,224.1l-9.7,12.6c-1,1.4-1.6,3.1-1.6,4.8c0,1.7,0.6,3.4,1.7,4.8c7.3-8.9,14.8-18.9,19-24.7
			c-1.6-0.7-3.4-0.8-5.1-0.4S423,222.7,421.9,224.1L421.9,224.1z"/>
		<path fill="#8C49BF" d="M465.3,196c0,0-16-2-22.4,0l8.7,9.4L465.3,196z"/>
		
			<linearGradient id="SVGID_1_" gradientUnits="userSpaceOnUse" x1="367.1784" y1="423.9898" x2="395.4938" y2="423.9898" gradientTransform="matrix(1 0 0 -1 0 692.1665)">
			<stop  offset="0" style="stop-color:#CE7E9B"/>
			<stop  offset="1" style="stop-color:#DD9EBC"/>
		</linearGradient>
		<path fill="url(#SVGID_1_)" d="M387.2,257.2c-4.7,3.2-16.9,3.5-19.2,9c-4,9.8,7.2,10,13.5,8.7c-1.5,0.9-2.4,2.3-1.9,4
			c5,3.2,11.3-3.1,13.7-6.9c2.9-4.6,2.1-8.9,1.8-14.4c-2.4-1-5-1.4-7.6-1.2"/>
		<path fill="#8C49BF" d="M445.2,195.5c0,0-12.9,0.5-21.7,9.5c-0.6,0.6-1.2,1.2-1.7,1.9c0,0-1,1.2-2.7,3.3c1.1,1.4,1.8,3.1,1.8,4.8
			c0,1.8-0.5,3.5-1.6,4.9l-9.7,12.6c-1.1,1.4-2.6,2.4-4.4,2.9c-1.7,0.4-3.6,0.3-5.2-0.5c-6.2,8.7-11.6,17.3-12.9,22.2l4.4,3.2
			l2.8,1.9c4.2-2.5,11.5-8.3,17.9-16c-1.1-1.4-1.7-3.1-1.7-4.8c0-1.7,0.5-3.4,1.6-4.8l9.7-12.6c1.1-1.4,2.6-2.4,4.3-2.9
			c1.7-0.5,3.5-0.3,5.1,0.4c2.2-3,3.5-4.9,3.5-4.9l0.1-0.1l2.4,1.8l11.1-17L445.2,195.5z"/>
		<path fill="#2E2454" d="M442,196c-4.4,0.8-12.4,2.9-18.4,9.1c-0.6,0.6-1.2,1.2-1.7,1.9l-0.1,0.2c2,1.2,4.3,1.8,6.6,1.8
			c2.3,0,4.6-0.6,6.6-1.7c2-1.1,3.8-2.7,5-4.7C441.2,200.5,441.9,198.3,442,196L442,196z"/>
		<path fill="#8C49BF" d="M462.1,195.5c1.1,0.1,2.1,0.2,3.2,0.4c0.1,2.3,0.8,4.6,2,6.5c1.2,2,2.9,3.6,5,4.7c2,1.1,4.3,1.7,6.6,1.7
			c2.3,0,4.6-0.6,6.6-1.8c2.2,2.6,31.2,37.7,34.5,50.1l-4.4,3.2l-3.8,2.9c-11.5-6.8-39.3-46.6-39.3-46.6l-0.1-0.1l-2.4,1.8l-11.1-17
			L462.1,195.5z"/>
		<path fill="#572188" d="M497.6,232.5l-9.7-12.6c-1.1-1.4-1.6-3.1-1.6-4.9c0-1.8,0.7-3.5,1.8-4.8c4.1,5,12,14.9,19,24.8
			c-1.6,0.7-3.5,0.9-5.2,0.5C500.2,235,498.7,234,497.6,232.5z"/>
		<path fill="#572188" d="M485.4,224.1l9.7,12.6c1,1.4,1.6,3.1,1.6,4.8c0,1.7-0.6,3.4-1.7,4.8c-7.3-8.9-14.8-18.9-18.9-24.7
			c1.6-0.7,3.4-0.8,5.1-0.3C482.8,221.7,484.3,222.7,485.4,224.1L485.4,224.1z"/>
		<path fill="#2E2454" d="M465.3,196c4.4,0.8,12.4,2.9,18.4,9.1c0.6,0.6,1.2,1.2,1.7,1.9l0.1,0.2c-2,1.2-4.3,1.8-6.6,1.8
			c-2.3,0-4.6-0.6-6.6-1.7s-3.7-2.7-5-4.7C466.1,200.5,465.4,198.3,465.3,196L465.3,196z"/>
		<path fill="#8C49BF" d="M465.3,213.5H442v-17.6l20.1-0.4L465.3,213.5z"/>
		<path fill="#2E2454" d="M445.9,183.6v13.7c0,2.6,3.3,4.8,7.3,4.8c4,0,7.3-2.1,7.3-4.8v-13.7H445.9z"/>
		<path fill="#8C49BF" d="M467.3,248.2c-0.1-4.3,1.1-8.5,3.4-12.2c-7.5-0.7-15.6-1.1-22.7-1.1c-4.1,0-7.4,0.1-10.3,0.4l0,0.1l-1,0.1
			l0.1,0.1c2.2,3.8,3.4,8.2,3.3,12.6c-1.3,0.1-2.7,0.4-4,0.7c5.8-1,11.7-1.5,17.6-1.5C458.2,247.3,462.8,247.6,467.3,248.2
			L467.3,248.2z"/>
		<path fill="#2E2454" d="M437.8,235c-1.2,0.1-2.2,0.1-3.3,0.3l-7.9,1.5c0,0-0.3,1.2-0.3,1.1c-0.8,4.1-1.5,8.9-2.1,14.5
			c0.5-0.3,5.1-2.7,13.7-4.2c1.2-0.3,2.4-0.5,3.6-0.6C441.2,243.2,440,238.8,437.8,235L437.8,235z"/>
		<path fill="#2E2454" d="M481.7,238.4c-4.2-0.8-8.4-1.4-12.7-1.8c-2,3.3-3.1,7.1-3,11h0.2c2.2,0.2,4.3,0.6,6.4,1.1
			c3.8,0.7,7.6,1.9,11.1,3.5C483.1,246.9,482.4,242.3,481.7,238.4z"/>
		
			<linearGradient id="SVGID_2_" gradientUnits="userSpaceOnUse" x1="23217.3223" y1="421.3981" x2="27660.8418" y2="421.3981" gradientTransform="matrix(1 0 0 -1 0 692.1665)">
			<stop  offset="0" style="stop-color:#CE7E9B"/>
			<stop  offset="1" style="stop-color:#DD9EBC"/>
		</linearGradient>
		<path fill="url(#SVGID_2_)" d="M483.7,252.2c-3.6-1.4-7.3-2.6-11.1-3.5c-1.9-0.4-4-0.8-6.4-1.1h-0.2c-4.1-0.5-8.2-0.8-12.3-0.7
			c-5.3,0-10.6,0.4-15.9,1.3c-4.7,1-9.2,2.5-13.7,4.2c-0.1,1.1-0.2,2.3-0.4,3.5l-0.7,7.8l30.6,31l30.6-23.9l0.4-7.5l-0.9-9.6
			C483.8,253.2,483.7,252.7,483.7,252.2z"/>
		<path fill="#CE7E9B" d="M441.4,247.5c0,0-12.8,1.9-17.2,4.8l-0.1,1.4l-0.5,5.1c0,0,8.5,7.2,25,6.8
			C448.5,265.8,438.6,258.8,441.4,247.5z"/>
		<path opacity="0.3" fill="#FFFFFF" d="M465.9,247.5c0,0,9.7,0.9,17.7,4.6l0.2,1.6l0.5,5.1c0,0-8.6,7.2-25.1,6.8
			C459.2,265.8,468.7,258.8,465.9,247.5z"/>
		<path fill="#29244C" d="M502.9,353.4c-1.3-1.6-3-2.3-2.6-4.7c0.4-2.6,1.2-4.2,0.5-6.8c-0.9-3.5-5.6-5.1-6-9
			c0.1-0.7,0.1-1.4,0.2-2.1c0-0.2,0-0.5,0.1-0.7l0.1-1.3l0.1-0.6c2.6-34.2-7.7-74-7.7-74c-11.1,2.7-22.6,4.1-34,4.1h-0.2
			c-2.8,0-23.5,0.6-32.1-4.3c0,0-12.8,43.3-9.4,78.8c-0.3,3.8-5.1,5.5-6,8.9c-0.7,2.7,0.1,4.3,0.5,6.8c0.4,2.6-1.3,3.1-2.6,4.7
			c-3.2,3.9,2.5,9.5,5.4,12c2.5,1.8,5.2,3.3,8,4.6c3.9,2,9.9,3.8,19.4,4.3c0,0,19.5-0.5,15-14.9c0,0-3.3-6.7-2.2-10.1
			c0,0,3.7-35.3,1.1-43l3,0.1h0.2l3-0.1c-2.6,7.7,0.9,43,0.9,43c1.1,3.4-2.2,10.1-2.2,10.1c-4.6,14.3,14.9,14.9,14.9,14.9
			c9.5-0.5,15.5-2.3,19.4-4.3c2.8-1.3,5.5-2.8,8-4.5C500.4,363,506.1,357.4,502.9,353.4z"/>
		
			<linearGradient id="SVGID_3_" gradientUnits="userSpaceOnUse" x1="37107.2031" y1="563.5387" x2="50741.8633" y2="563.5387" gradientTransform="matrix(1 0 0 -1 0 692.1665)">
			<stop  offset="0" style="stop-color:#CE7E9B"/>
			<stop  offset="1" style="stop-color:#DD9EBC"/>
		</linearGradient>
		<path fill="url(#SVGID_3_)" d="M451.6,67.3c-29.8,0-54,17.6-54,47.4c0,1.7,0.1,3.5,0.2,5.1h-0.2c0,0,3.1,23.6,5.2,33.7
			c2.8,13.3,9.3,30.3,46.3,36.3c1.5,0.2,3.1,0.2,4.6,0l0,0h0.1c0.7-0.1,1.4-0.2,2.1-0.4c35.1-6.3,41.4-22.9,44.1-35.9
			c1.5-7.4,3.6-21.9,4.6-29.2c0.6-3.2,0.9-6.4,0.9-9.6C505.5,84.9,481.4,67.3,451.6,67.3z"/>
		<path fill="#FFFFFF" d="M493.9,134.9c0,7.8-6.9,14.2-15.4,14.2c-8.5,0-15.4-6.4-15.4-14.2s6.9-14.2,15.4-14.2
			C487,120.8,493.9,127.1,493.9,134.9z"/>
		<path fill="#2E2454" d="M490.5,134.6c0,8-5.5,14.6-12.3,14.6c-6.8,0-12.4-6.5-12.4-14.6c0-8,5.5-14.5,12.3-14.5
			C484.9,120.1,490.5,126.5,490.5,134.6z"/>
		<path fill="#2E2454" d="M478.5,116.5c-8.5,0-16.2,7.1-18.5,15.4l3.3,0.9c0.9-3.2,2.8-6,5.3-8c2.6-2.1,5.7-3.3,9-3.5
			s6.6,0.6,9.4,2.4c2.8,1.7,5,4.3,6.3,7.3l5.7-4.4C495.8,119.4,486.2,116.5,478.5,116.5z"/>
		<path fill="#2E2454" d="M493.7,106.1c-0.2-0.2-0.4-0.5-0.7-0.7l-0.7-0.7c-0.3-0.2-0.5-0.4-0.8-0.6l-0.4-0.3l-0.4-0.3
			c-0.3-0.2-0.5-0.4-0.9-0.5s-0.8-0.4-1.2-0.6c-4.9-2.7-10.8-2.6-14.5-2.3c-1.2,0.1-2.3,0.3-3.5,0.5h0c-2.9,0.7-5.6,2.1-7.8,4.2l0,0
			l-0.1,0.1c-0.7,0.7-1.4,1.5-1.9,2.4l-0.2,0.3l0.2,0.2c0.1,0.1,0.2,0.2,0.3,0.2l0.4,0.2c0.1,0.1,0.2,0.2,0.4,0.2l0.4,0.2
			c0.1,0.1,0.3,0.1,0.4,0.2l0.4,0.2c0.1,0.1,0.3,0.1,0.4,0.1l0.4,0.1c0.1,0,0.3,0.1,0.4,0.1l0.4,0.1c0.1,0,0.3,0,0.4,0
			c0.3,0,0.6,0,0.9-0.1c0.3-0.1,0.6-0.1,0.9-0.2l0.3-0.1l0.3-0.2c0.2-0.1,0.4-0.3,0.7-0.5l0.7-0.5c0.5-0.3,1-0.7,1.5-1
			c0.5-0.3,1-0.6,1.6-0.9l0.8-0.4l0.9-0.4c0.5-0.2,1.1-0.5,1.7-0.7c0.6-0.2,1.1-0.4,1.7-0.6c0.3-0.1,0.6-0.2,0.9-0.2
			c0.3-0.1,0.6-0.2,0.9-0.2s0.6-0.1,0.9-0.2l0.9-0.1c0.6-0.1,1.2-0.1,1.8-0.1c0.3,0,0.6,0,0.9,0s0.6,0,0.9,0s0.6,0.1,0.9,0.1
			l0.9,0.1c0.3,0.1,0.6,0.1,0.9,0.2l0.4,0.1l0.4,0.1c0.6,0.2,1.1,0.4,1.6,0.6c0.3,0.1,0.5,0.3,0.8,0.4l0.4,0.2l0.4,0.2
			c0.2,0.2,0.5,0.3,0.8,0.5l0.7,0.5c0.2,0.2,0.5,0.4,0.7,0.6l0.7,0.6l0.9-0.9L493.7,106.1z"/>
		<path fill="#2E2454" d="M406.9,100.1c0.2-0.2,0.5-0.4,0.8-0.6l0.8-0.6l0.9-0.5l0.4-0.2l0.5-0.2c0.3-0.1,0.6-0.3,0.9-0.4
			c0.3-0.1,0.9-0.3,1.2-0.4c5.1-2,11.1-1.2,14.7-0.4c1.2,0.2,2.3,0.6,3.4,1c2.8,1,5.3,2.8,7.2,5.2l0,0l0.1,0.1
			c0.6,0.8,1.2,1.7,1.6,2.6l0.2,0.3l-0.3,0.2c-0.1,0.1-0.2,0.1-0.3,0.2l-0.4,0.2c-0.1,0.1-0.3,0.1-0.4,0.2l-0.4,0.1
			c-0.1,0-0.3,0.1-0.4,0.1l-0.4,0.1c-0.1,0-0.3,0.1-0.4,0.1l-0.4,0.1c-0.1,0-0.3,0-0.4,0h-0.4c-0.1,0-0.3,0-0.4-0.1
			c-0.3,0-0.6-0.1-0.9-0.2l-0.9-0.3l-0.3-0.1l-0.3-0.3c-0.2-0.2-0.4-0.4-0.6-0.6c-0.2-0.2-0.4-0.4-0.7-0.6c-0.4-0.4-0.9-0.8-1.4-1.1
			c-0.5-0.4-1-0.7-1.4-1.1l-0.7-0.5l-0.8-0.5c-0.5-0.3-1-0.6-1.6-0.9c-0.5-0.2-1.1-0.6-1.6-0.8c-0.3-0.1-0.5-0.2-0.9-0.4
			s-0.6-0.2-0.9-0.3c-0.3-0.1-0.6-0.2-0.9-0.3l-0.9-0.3c-0.6-0.1-1.1-0.3-1.7-0.4c-0.3-0.1-0.6-0.1-0.9-0.1c-0.3,0-0.6-0.1-0.9-0.1
			c-0.3,0-0.6,0-0.9,0h-0.9c-0.3,0-0.6,0.1-0.9,0.1c-0.1,0-0.3,0-0.4,0.1l-0.4,0.1c-0.6,0.1-1.1,0.3-1.7,0.4
			c-0.3,0.1-0.6,0.2-0.9,0.3l-0.4,0.2l-0.4,0.2c-0.3,0.1-0.5,0.2-0.8,0.4l-0.8,0.5c-0.3,0.1-0.5,0.3-0.8,0.5l-0.7,0.5l-0.8-1
			L406.9,100.1z"/>
		<path fill="#FFFFFF" d="M406.4,134.9c0,7.8,6.9,14.2,15.4,14.2c8.5,0,15.4-6.4,15.4-14.2s-6.9-14.2-15.4-14.2
			C413.3,120.8,406.4,127.1,406.4,134.9z"/>
		<path fill="#2E2454" d="M409.8,134.6c0,8,5.5,14.6,12.3,14.6c6.8,0,12.3-6.5,12.3-14.6c0-8-5.5-14.5-12.3-14.5
			C415.3,120.1,409.8,126.5,409.8,134.6z"/>
		<path fill="#2E2454" d="M421.8,116.5c8.5,0,16.2,7.1,18.5,15.4l-3.2,0.9c-0.9-3.2-2.8-6-5.3-8c-2.6-2.1-5.7-3.3-9-3.5
			c-3.3-0.2-6.6,0.6-9.4,2.4c-2.8,1.7-5,4.3-6.3,7.3l-5.7-4.4C404.4,119.4,414,116.5,421.8,116.5z"/>
		<path fill="none" stroke="#2E2454" stroke-width="1.83" stroke-linecap="round" stroke-miterlimit="10" d="M464.9,171.5
			c0,0-11.5-5.2-23.9,0"/>
		<path fill="#FFFFFF" d="M449.9,157.6l-3.9-3.3c2.1-3,3.2-6.7,2.9-10.4C449,143.9,451.7,153.5,449.9,157.6z"/>
		
			<linearGradient id="SVGID_4_" gradientUnits="userSpaceOnUse" x1="50494.5039" y1="573.0999" x2="81684.5469" y2="573.0999" gradientTransform="matrix(1 0 0 -1 0 692.1665)">
			<stop  offset="0" style="stop-color:#6C28A5"/>
			<stop  offset="1" style="stop-color:#A96AD8"/>
		</linearGradient>
		<path fill="url(#SVGID_4_)" d="M524,157c5.7-11.8,2.1-42.6-7-65.4c-1.6-4.4-3.7-8.6-6.2-12.6c-0.1-0.2-0.3-0.5-0.4-0.7l-0.1-0.1
			c-0.8-1.2-1.6-2.4-2.4-3.5c-6.5-9-15.1-16.4-25-21.5c-9.9-5.1-20.9-7.7-32-7.7c-11.1,0-22.1,2.7-32,7.7
			c-9.9,5.1-18.5,12.5-25,21.5v-0.1c-1.4,1.9-2.7,3.9-3.9,6c-1.9,3.2-3.5,6.6-4.8,10.1c-9.4,22.9-13.2,54.3-7.4,66.3
			c4.9,10.2,1.3,20.5-8.5,26.9c4.6,2.9,15.5,12.4,23.5,6.6c0.5-0.4,2.7-4.2,3.3-4.1c0.5,0.1-1.1,5.9-0.6,6c11.8,1.2,24.6-1,30.6-4.7
			c-2.1-2.6-4.3-5-6.5-7.5l0.2,0.1c-12.1-7.8-15.5-18-17.3-26.6c-2.1-10.2-4.2-33.9-4.2-33.9c-0.2-1.7-0.2-3.4-0.2-5.2
			c-0.2-7.5,1.4-15,4.6-21.9h15.4l3.8-14l0.8,14H459l0.8-15.4l1.5,15.4h11.3l0.8-15.4l1.5,15.4h25.4c3.5,6.8,5.2,14.3,5.1,21.9
			c0,3.2-0.3,6.5-0.9,9.7c-1,7.4-3.1,22-4.6,29.4c-1.9,8.9-5.4,19.6-18.7,27.5c-1.9,2.2-3.8,4.3-5.6,6.6c6.1,3.8,18.8,5.9,30.6,4.7
			c0.5-0.1-1.1-5.9-0.6-6c0.6-0.1,2.9,3.8,3.3,4.1c8,5.8,18.9-3.7,23.5-6.6C522.7,177.4,519.1,167.1,524,157z"/>
		<path fill="#683099" d="M403.1,155.7c0,0,1.5,19.3,13.4,35.5c0,0,21.4,2,29.3,0.4v-2.4C445.9,189.3,411.4,183.1,403.1,155.7z"/>
		<path fill="#683099" d="M499.9,153.6c0,0-1,32.8-7.7,38.7c0,0-27,0.9-31.8-0.6v-3.2C460.4,188.6,493.7,182.3,499.9,153.6z"/>
		
			<linearGradient id="SVGID_5_" gradientUnits="userSpaceOnUse" x1="11712.1572" y1="556.2571" x2="12408.4199" y2="556.2571" gradientTransform="matrix(1 0 0 -1 0 692.1665)">
			<stop  offset="0" style="stop-color:#CE7E9B"/>
			<stop  offset="1" style="stop-color:#DD9EBC"/>
		</linearGradient>
		<path fill="url(#SVGID_5_)" d="M504.2,124.7c0,0,2.6-6.8,10.9-6c6.4,0.6,15.4,9.3,3,25.5c-3.3,4.4-7.6,9.2-18.2,8.9l2.4-15.1
			L504.2,124.7z"/>
		<path fill="#2E2454" d="M515.5,124.9c-6.6,1.3-10.7,15.6-10.9,16.2l1.5,0.4c0.9-3.1,2.1-6.1,3.6-8.9c0.5,0,0.9,0.2,1.3,0.4
			c0.4,0.2,0.8,0.5,1.1,0.9c1,1.2,1.8,4,0,9.9l1.5,0.5c1.6-5.3,1.5-9.1-0.2-11.4c-0.7-0.9-1.7-1.5-2.8-1.7c1.5-2.4,3.3-4.4,5.2-4.7
			c1.7-0.3,3.4,0.6,5.2,2.8l1.2-1C520.1,125.6,517.9,124.5,515.5,124.9z"/>
		<path fill="#24E029" d="M523.6,123.4c-0.6,1-2.4,4-4.4,5.3l2.1,3.1c3.1-2.1,5.4-6.5,5.5-6.7L523.6,123.4z"/>
		<path fill="#24E029" d="M507.8,148.8c-0.2,0.4-0.4,0.7-0.8,0.9c-0.3,0.2-0.7,0.3-1.1,0.3c-0.4,0-0.8-0.1-1.1-0.4
			c-0.3-0.2-0.6-0.5-0.7-0.9c-0.1-0.4-0.2-0.8-0.1-1.1c0.1-0.4,0.3-0.7,0.6-1c0.3-0.3,0.6-0.4,1-0.5c0.4-0.1,0.8,0,1.1,0.2
			c0.2,0.1,0.5,0.3,0.6,0.5c0.2,0.2,0.3,0.4,0.4,0.7c0.1,0.2,0.1,0.5,0.1,0.8C508,148.4,507.9,148.6,507.8,148.8L507.8,148.8z"/>
		<path fill="#2E2454" d="M511.5,148.3c-0.1,0.2-0.3,0.4-0.5,0.5c-0.2,0.1-0.4,0.2-0.7,0.2s-0.5-0.1-0.7-0.2
			c-0.2-0.1-0.3-0.3-0.4-0.6c-0.1-0.2-0.1-0.5,0-0.7c0.1-0.2,0.2-0.5,0.4-0.6s0.4-0.3,0.6-0.3c0.2,0,0.5,0,0.7,0.1
			c0.3,0.1,0.5,0.4,0.6,0.7C511.6,147.7,511.6,148,511.5,148.3L511.5,148.3z"/>
		
			<linearGradient id="SVGID_6_" gradientUnits="userSpaceOnUse" x1="12712.9922" y1="521.5872" x2="14192.0459" y2="521.5872" gradientTransform="matrix(1 0 0 -1 0 692.1665)">
			<stop  offset="0" style="stop-color:#CE7E9B"/>
			<stop  offset="1" style="stop-color:#DD9EBC"/>
		</linearGradient>
		<path fill="url(#SVGID_6_)" d="M438.4,156.9c0,0-15.2,4-23.4,5.6c0,0,7.1,18.2,22.2,24.3c0,0-31.5-10.7-34.4-32.5
			C402.8,154.3,417.2,158.1,438.4,156.9z"/>
		
			<linearGradient id="SVGID_7_" gradientUnits="userSpaceOnUse" x1="6097.2222" y1="593.7322" x2="6278.7861" y2="593.7322" gradientTransform="matrix(1 0 0 -1 0 692.1665)">
			<stop  offset="0" style="stop-color:#CE7E9B"/>
			<stop  offset="1" style="stop-color:#DD9EBC"/>
		</linearGradient>
		<path fill="url(#SVGID_7_)" d="M500.3,92.7H492c0,0,3.1,5.8,3,7.3l-3.5,4.1l12.5-1.5C504,102.7,502,94.5,500.3,92.7z"/>
		
			<linearGradient id="SVGID_8_" gradientUnits="userSpaceOnUse" x1="13889.0918" y1="522.435" x2="15069.0049" y2="522.435" gradientTransform="matrix(1 0 0 -1 0 692.1665)">
			<stop  offset="0" style="stop-color:#CE7E9B"/>
			<stop  offset="1" style="stop-color:#DD9EBC"/>
		</linearGradient>
		<path fill="url(#SVGID_8_)" d="M488.4,155.9c0,0,0.5,20.1-20.3,30.4c0,0,26-7.3,31.7-33.1C499.9,153.2,492.8,155.4,488.4,155.9z"
			/>
		<path opacity="0.3" fill="#FFFFFF" d="M450.9,108.4c-23.9,0.1-57.6-2.3-57.6-2.3l1.7,43.4c8.1,10.5,43.4,7.5,43.4,7.5l4.6-12.5
			c2.3-6.1,6.1-7.1,8.2-7.2c2-0.1,6,0.9,8.3,7l4.8,12.4c0,0,35.3,2.3,43.2-8.4l1-43.4C508.5,104.9,474.8,108,450.9,108.4z"/>
		<path fill="none" stroke="#683199" stroke-width="3.38" stroke-linecap="round" stroke-miterlimit="10" d="M443.3,144.8
			c2.3-7.1,6.1-8.2,8.2-8.2c2-0.1,5.9,1,8.4,8.1"/>
		<path fill="#572188" d="M450,112.7c-31.2,0-56.8-2.3-57.2-2.3c-0.9-0.1-1.7-0.6-2.3-1.3c-0.6-0.7-0.8-1.6-0.7-2.5
			c0.1-0.9,0.5-1.7,1.2-2.3c0.7-0.6,1.6-0.9,2.4-0.9c0.6,0.1,65.6,5.8,114.4-1.2c0.5-0.1,1-0.1,1.4,0c0.5,0.1,0.9,0.3,1.3,0.5
			c0.4,0.3,0.7,0.6,1,1c0.3,0.4,0.4,0.9,0.5,1.3c0.1,0.5,0,1-0.1,1.4c-0.1,0.5-0.4,0.9-0.7,1.3c-0.3,0.4-0.7,0.7-1.1,0.9
			c-0.4,0.2-0.9,0.3-1.4,0.4C490.1,111.9,469,112.7,450,112.7z"/>
		<path fill="none" stroke="#24E029" stroke-width="3.05" stroke-linecap="round" stroke-miterlimit="10" d="M436.3,211.4
			c0,0-2.1-9.5,0-14.9"/>
		<path fill="none" stroke="#24E029" stroke-width="3.05" stroke-linecap="round" stroke-miterlimit="10" d="M470.2,211.4
			c0,0,2.1-9.5,0-14.9"/>
		<path fill="#24E029" d="M471,232.6l3.4-7.2L471,232.6L471,232.6z"/>
		<path fill="#24E029" d="M481.7,238.4l-0.1-0.7h0L481.7,238.4z"/>
		<path fill="#24E029" d="M481.4,237l0.1,0.3L481.4,237z"/>
		<path fill="#24E029" d="M481.5,237.7c0,0,0-0.1,0-0.1l-0.1-0.4l-0.1-0.3c-0.1-0.3-0.1-0.7-0.2-1v-0.1c-0.4-2-0.8-3.7-1.2-5.3
			l-4.2-13.9l-0.1-0.2c-1.1-2.7-2.9-9.7-8.7-9.7h-27c-7.2,0-9.8,14.8-9.9,14.9l-1.7,5.5l-2.3,10.5c4.3-0.9,8.6-1.5,12.9-2
			c2.7-0.2,5.7-0.3,9.3-0.3c6.4,0,13.8,0.4,20.5,1l12.7,1.8L481.5,237.7z"/>
		<path fill="#FFFFFF" d="M461.9,221h-0.5l-0.5,0.5l-0.2,0.2h-9.1l-0.3,0.3l-0.3,0.3h9.1l-1.2,1.1l-0.9,0.9l-1,1l-0.2,0.2h-10
			l-3.2,3.2h2.2c0.3,0,0.5,0,0.7-0.1c0.2-0.1,0.5-0.2,0.6-0.4l1.2-1.3h7.9c0.8,0,1.6-0.3,2.2-0.9l3.9-4c0.1-0.1,0.2-0.2,0.2-0.3
			c0-0.1,0-0.3,0-0.4c0-0.1-0.1-0.2-0.3-0.3C462.2,221,462.1,221,461.9,221L461.9,221z"/>
		<path fill="#FFFFFF" d="M453.2,215.9l-1.9,1.9h12.1l1.9-1.9H453.2z"/>
		<path fill="#FFFFFF" d="M446.4,224.9h10l1-1l1-0.9h-9.1l0.7-0.7l1.5-1.5h9.1l1.9-1.9h-12.1l-4.5,4.5c-0.1,0.1-0.2,0.3-0.3,0.5
			c0,0.2,0,0.4,0,0.5c0.1,0.2,0.2,0.3,0.3,0.4C446.1,224.8,446.2,224.9,446.4,224.9L446.4,224.9z"/>
		<path fill="#1D9E1D" d="M431.4,217.2c0,0-0.6,13.4,6.9,18.9l-12.1,1.8C426.2,237.9,429.4,221.6,431.4,217.2z"/>
		<path fill="#94D394" d="M475.8,216.8c0,0,0.2,16.5-6.8,19.8l12.7,1.8C481.7,238.4,478.5,221.8,475.8,216.8z"/>
		<path fill="#24E029" d="M404.2,234.9l-5,6l10.3,8.7l5-6L404.2,234.9z"/>
		<path fill="#63676B" d="M386.7,248.8l8.5,6.3c0.5,0.3,1.1,0.5,1.7,0.5c0.6-0.1,1.2-0.3,1.6-0.7l19.4-19.9c0.2-0.2,0.4-0.4,0.5-0.7
			c0.1-0.3,0.1-0.5,0.1-0.8c0-0.3-0.1-0.5-0.2-0.8c-0.1-0.2-0.3-0.4-0.6-0.6l-8.5-6.3"/>
		<path fill="#A7A9AC" d="M416.8,234.1c0.2-0.2,0.4-0.4,0.5-0.7c0.1-0.3,0.1-0.5,0.1-0.8c0-0.3-0.1-0.5-0.2-0.8
			c-0.1-0.2-0.3-0.4-0.6-0.6l-8.5-6.3c-0.5-0.3-1.1-0.5-1.7-0.5c-0.6,0.1-1.2,0.3-1.6,0.7L385.3,245c-0.2,0.2-0.4,0.4-0.5,0.7
			c-0.1,0.3-0.1,0.5-0.1,0.8c0,0.3,0.1,0.5,0.2,0.8c0.1,0.2,0.3,0.5,0.6,0.6l8.5,6.3c0.5,0.3,1.1,0.5,1.7,0.5
			c0.6-0.1,1.2-0.3,1.6-0.7L416.8,234.1z"/>
		<path fill="#2E2454" d="M399.3,251.2l-11.2-8.2l14.7-15l11.2,8.2L399.3,251.2z"/>
		<path fill="#24E029" d="M411.5,230.2c-0.2,0.2-0.5,0.3-0.7,0.3c-0.3,0-0.6-0.1-0.8-0.2c-0.1-0.1-0.2-0.2-0.3-0.3
			c-0.1-0.1-0.1-0.2-0.1-0.4c0-0.1,0-0.3,0.1-0.4c0-0.1,0.1-0.2,0.2-0.3c0.2-0.2,0.5-0.3,0.7-0.3c0.3,0,0.6,0,0.8,0.2
			c0.1,0.1,0.2,0.2,0.3,0.3c0.1,0.1,0.1,0.2,0.1,0.4c0,0.1,0,0.3-0.1,0.4C411.7,230,411.6,230.1,411.5,230.2L411.5,230.2z"/>
		<path fill="#9446CE" d="M397.1,237.9l0.2,0.2h0.4h0.1l0.1,0.1l3.7,2.8h0.2h0.2l-3.1-2.3l-0.7-0.5l0.9-0.1l0.7-0.1l0.7-0.1h0.1
			l0.1,0.1l3.8,2.8l0.3,0.2l2.4-0.3l-0.9-0.7c-0.1-0.1-0.2-0.1-0.4-0.2c-0.1,0-0.3,0-0.4,0l-0.9,0.1l-3.3-2.5
			c-0.2-0.1-0.4-0.2-0.6-0.3c-0.2-0.1-0.4-0.1-0.6,0l-2.9,0.4c0,0-0.1,0-0.1,0.1c0,0-0.1,0.1-0.1,0.1c0,0,0,0.1,0,0.1
			C397.1,237.8,397.1,237.9,397.1,237.9L397.1,237.9z"/>
		<path fill="#24E029" d="M399.2,242.8l1.4-0.2l-5.1-3.8l-1.4,0.2L399.2,242.8z"/>
		<path fill="#24E029" d="M404.9,241.1l-0.4-0.3l-3.8-2.8l-0.8,0.1l-0.7,0.1l3.4,2.6l0.4,0.3l-0.5,0.1l-1.1,0.2l-3.8-2.8l-1.4,0.2
			l5.1,3.8l3.3-0.5c0.1,0,0.2-0.1,0.3-0.1c0.1-0.1,0.1-0.1,0.1-0.2c0-0.1,0-0.2,0-0.3C405,241.3,404.9,241.2,404.9,241.1
			L404.9,241.1z"/>
	</g>
	<path fill="#F8AC25" d="M573.4,201.1l-23.5-76.9c-2-6.4-10-8.5-14.8-3.8l-57.7,56c-5,4.9-2.8,13.3,4,15.1l81.2,20.9
		C569.4,214.1,575.5,207.7,573.4,201.1L573.4,201.1z"/>
	<path fill="#FF7146" d="M507.6,198.2l29,7.4l-2.5,9.8l-29-7.4L507.6,198.2z"/>
	<path fill="#FFC040" d="M512.6,210l13.9,3.6l-15.9,61.8l-13.9-3.6L512.6,210z"/>
	<path fill="#E5AC39" d="M512.6,210l13.9,3.6l-1.2,4.8l-13.9-3.6L512.6,210z"/>
	<path fill="#FFFFFF" d="M528.4,177.5c-2.5-0.7-4.2-3.2-3.7-5.7l6.3-31.4c0.7-3.9,4.5-6.3,8.3-5.3c3.8,1,6,5,4.7,8.7l-9.7,30.6
		C533.5,176.7,530.9,178.1,528.4,177.5z"/>
	<path fill="#FFFFFF" d="M524.5,192.5c2.7,0.7,5.5-0.9,6.3-3.7c0.7-2.7-0.9-5.5-3.7-6.3c-2.7-0.7-5.5,0.9-6.3,3.7
		C520.1,189,521.8,191.8,524.5,192.5z"/>
	
		<linearGradient id="SVGID_9_" gradientUnits="userSpaceOnUse" x1="-1816.8849" y1="-10044.9941" x2="-1958.6643" y2="-10682.7461" gradientTransform="matrix(1 0 0 -1 0 692.1665)">
		<stop  offset="0" style="stop-color:#DB99B7"/>
		<stop  offset="1" style="stop-color:#DB99B7"/>
	</linearGradient>
	<path fill="url(#SVGID_9_)" d="M524.7,247.4c0.1,3.2-0.6,6.4-1.9,9.3c-2.3,4.7-6.3,3.6-6.3,3.6s-7.8-2.1-9.3-3.4
		c-1.6-1.3-4.5-3.1-2-9.5c2.4-6.4,7.5-4.7,11.5-4.2c1.3,0.2,0.3-1,0.2-3c-0.2-2.3,0.9-4.6,4.3-1.7
		C524.5,241.4,524.7,247.4,524.7,247.4z"/>
</g>
<g>
	<circle fill="#F37878" cx="866.8" cy="268.5" r="24"/>
	<path fill="#FFFFFF" d="M858.2,260.1c0.7-0.7,1.6-1,2.1-0.7l0.1,0.1l15.4,15.4c0.4,0.4,0.1,1.4-0.6,2.2c-0.7,0.7-1.6,1-2.1,0.7
		l-0.1-0.1l-15.4-15.4C857.1,261.8,857.4,260.9,858.2,260.1z"/>
	<path fill="#FFFFFF" d="M875.2,259.9c0.7,0.7,1,1.6,0.7,2.1l-0.1,0.1l-15.4,15.4c-0.4,0.4-1.4,0.1-2.2-0.6c-0.7-0.7-1-1.6-0.7-2.1
		l0.1-0.1l15.4-15.4C873.4,258.8,874.4,259.1,875.2,259.9z"/>
</g>
<text transform="matrix(1 0 0 1 391.7922 336.0836)" fill="#FFFFFF" font-family="'Arial-BoldMT'" font-size="24px">HEADS UP!</text>
<rect x="142.3" y="367.4" fill="none" width="640.7" height="113.3"/>
<text transform="matrix(1 0 0 1 142.2782 380.3043)"><tspan x="0" y="0" fill="#FFFFFF" font-family="'ArialMT'" font-size="18px">Lorem ipsum dolor sit amet, consectetuer adipiscing elit, sed diam nonummy </tspan><tspan x="0" y="21.6" fill="#FFFFFF" font-family="'ArialMT'" font-size="18px">nibh euismod tincidunt ut laoreet dolore magna aliquam erat volutpat. Ut wisi </tspan><tspan x="0" y="43.2" fill="#FFFFFF" font-family="'ArialMT'" font-size="18px">enim ad minim veniam, quis nostrud exerci tation ullamcorper suscipit lobortis </tspan><tspan x="0" y="64.8" fill="#FFFFFF" font-family="'ArialMT'" font-size="18px">nisl ut aliquip ex ea commodo consequat. Duis autem vel eum iriure dolor in </tspan><tspan x="0" y="86.4" fill="#FFFFFF" font-family="'ArialMT'" font-size="18px">hendrerit </tspan></text>
<rect x="142.7" y="480.7" fill="none" width="640.7" height="19.3"/>
<text transform="matrix(1 0 0 1 347.487 493.6376)" fill="#FFFFFF" font-family="'ArialMT'" font-size="18px">Do you still want to proceed?</text>
<g>
	<path fill="none" stroke="#6D5BD0" stroke-width="0.75" d="M393.9,574.1H245.6c-4.6,0-8.3-3.7-8.3-8.3v-22c0-4.6,3.7-8.3,8.3-8.3
		h148.4c4.6,0,8.3,3.7,8.3,8.3v22C402.2,570.4,398.5,574.1,393.9,574.1z"/>
	<rect x="276.7" y="548.4" fill="none" width="86.1" height="19.3"/>
	<text transform="matrix(1 0 0 1 283.2352 561.3043)" fill="#6D5BD0" font-family="'ArialMT'" font-size="18px">CANCEL</text>
</g>
<path fill="#6D5BD0" d="M601.4,574.1H453.1c-4.6,0-8.3-3.7-8.3-8.3v-22c0-4.6,3.7-8.3,8.3-8.3h148.4c4.6,0,8.3,3.7,8.3,8.3v22
	C609.7,570.4,606,574.1,601.4,574.1z"/>
<rect x="493.3" y="548.4" fill="none" width="75.3" height="19.3"/>
<text transform="matrix(1 0 0 1 499.4048 561.3043)" fill="#FFFFFF" font-family="'ArialMT'" font-size="18px">AGREE</text>
</svg>
